<svg id="svg" version="1.1" xmlns="http://www.w3.org/2000/svg" xmlns:xlink="http://www.w3.org/1999/xlink" width="400" height="400" viewBox="0, 0, 400,400"><g id="svgg"><path id="path0" d="M146.200 3.200 C 146.064 3.420,144.703 3.600,143.176 3.600 C 141.592 3.600,140.400 3.772,140.400 4.000 C 140.400 4.220,139.410 4.400,138.200 4.400 C 136.990 4.400,136.000 4.580,136.000 4.800 C 136.000 5.020,135.291 5.200,134.424 5.200 C 133.557 5.200,132.736 5.380,132.600 5.600 C 132.464 5.820,131.834 6.000,131.200 6.000 C 130.566 6.000,129.936 6.180,129.800 6.400 C 129.664 6.620,129.034 6.800,128.400 6.800 C 127.766 6.800,127.136 6.980,127.000 7.200 C 126.864 7.420,126.313 7.600,125.776 7.600 C 125.239 7.600,124.800 7.780,124.800 8.000 C 124.800 8.220,124.358 8.400,123.819 8.400 C 123.279 8.400,122.424 8.563,121.919 8.763 C 117.835 10.374,116.315 11.005,114.400 11.879 C 113.190 12.432,111.750 13.090,111.200 13.341 C 110.650 13.593,110.110 13.889,110.000 13.999 C 109.606 14.395,107.387 15.654,106.700 15.871 C 106.315 15.993,106.000 16.252,106.000 16.447 C 106.000 16.641,105.722 16.800,105.383 16.800 C 105.044 16.800,104.380 17.160,103.908 17.600 C 103.436 18.040,102.813 18.400,102.525 18.400 C 102.236 18.400,102.000 18.580,102.000 18.800 C 102.000 19.020,101.757 19.200,101.459 19.200 C 101.162 19.200,100.354 19.740,99.663 20.400 C 98.972 21.060,98.252 21.600,98.063 21.600 C 97.874 21.600,97.154 22.140,96.463 22.800 C 95.772 23.460,95.098 24.000,94.964 24.000 C 94.830 24.000,94.090 24.630,93.320 25.400 C 92.550 26.170,91.785 26.800,91.619 26.800 C 90.892 26.800,81.116 36.896,79.169 39.657 C 78.126 41.136,78.026 41.266,76.593 43.000 C 76.047 43.660,75.601 44.425,75.600 44.700 C 75.600 44.975,75.420 45.200,75.200 45.200 C 74.980 45.200,74.800 45.430,74.800 45.712 C 74.800 45.993,74.440 46.483,74.000 46.800 C 73.560 47.117,73.200 47.697,73.200 48.088 C 73.200 48.480,73.050 48.800,72.868 48.800 C 72.685 48.800,72.280 49.295,71.968 49.900 C 71.656 50.505,71.311 51.090,71.201 51.200 C 70.805 51.594,69.546 53.813,69.329 54.500 C 69.207 54.885,68.948 55.200,68.753 55.200 C 68.559 55.200,68.400 55.560,68.400 56.000 C 68.400 56.440,68.220 56.800,68.000 56.800 C 67.780 56.800,67.600 57.160,67.600 57.600 C 67.600 58.040,67.420 58.400,67.200 58.400 C 66.980 58.400,66.800 58.760,66.800 59.200 C 66.800 59.640,66.620 60.000,66.400 60.000 C 66.180 60.000,66.000 60.360,66.000 60.800 C 66.000 61.240,65.820 61.600,65.600 61.600 C 65.380 61.600,65.200 61.960,65.200 62.400 C 65.200 62.840,65.020 63.200,64.800 63.200 C 64.580 63.200,64.400 63.472,64.400 63.805 C 64.400 64.138,64.241 64.723,64.047 65.105 C 63.720 65.749,63.365 66.585,62.440 68.900 C 62.243 69.395,61.864 70.430,61.600 71.200 C 61.336 71.970,60.972 72.960,60.793 73.400 C 60.614 73.840,60.374 74.560,60.260 75.000 C 60.147 75.440,59.787 76.748,59.462 77.906 L 58.869 80.012 60.172 81.006 C 60.889 81.553,61.607 82.000,61.768 82.000 C 63.769 82.000,77.303 92.751,81.740 97.864 C 88.695 105.880,88.901 109.494,82.767 115.876 C 76.714 122.174,67.472 140.800,70.400 140.800 C 70.620 140.800,70.800 141.160,70.800 141.600 C 70.800 142.040,70.980 142.400,71.200 142.400 C 71.420 142.400,71.600 142.760,71.600 143.200 C 71.600 143.640,71.780 144.000,72.000 144.000 C 72.220 144.000,72.400 144.360,72.400 144.800 C 72.400 145.240,72.580 145.600,72.800 145.600 C 73.020 145.600,73.200 145.962,73.200 146.405 C 73.200 146.848,73.380 147.568,73.600 148.005 C 73.820 148.442,74.180 149.158,74.400 149.595 C 74.620 150.032,74.800 150.752,74.800 151.195 C 74.800 151.638,75.010 152.000,75.267 152.000 C 75.523 152.000,75.634 152.099,75.513 152.220 C 75.392 152.341,75.455 153.106,75.653 153.920 C 76.980 159.377,76.597 174.000,75.127 174.000 C 74.947 174.000,74.800 174.540,74.800 175.200 C 74.800 175.860,74.620 176.400,74.400 176.400 C 74.180 176.400,74.000 176.672,74.000 177.005 C 74.000 177.338,73.832 177.923,73.626 178.305 C 73.421 178.687,73.017 179.585,72.729 180.300 C 72.440 181.015,72.069 181.600,71.902 181.600 C 71.736 181.600,71.600 181.960,71.600 182.400 C 71.600 182.840,71.420 183.200,71.200 183.200 C 70.980 183.200,70.800 183.478,70.800 183.817 C 70.800 184.156,70.440 184.820,70.000 185.292 C 69.560 185.764,69.200 186.387,69.200 186.675 C 69.200 186.964,69.020 187.200,68.800 187.200 C 68.580 187.200,68.400 187.560,68.400 188.000 C 68.400 188.440,68.242 188.800,68.049 188.800 C 67.855 188.800,67.473 189.340,67.200 190.000 C 66.927 190.660,66.545 191.200,66.351 191.200 C 66.158 191.200,66.000 191.436,66.000 191.725 C 66.000 192.013,65.640 192.636,65.200 193.108 C 64.760 193.580,64.400 194.058,64.400 194.170 C 64.400 194.282,63.050 196.426,61.400 198.935 C 59.750 201.445,58.400 203.618,58.400 203.765 C 58.400 203.913,58.040 204.420,57.600 204.892 C 57.160 205.364,56.800 205.987,56.800 206.275 C 56.800 206.564,56.620 206.800,56.400 206.800 C 56.180 206.800,56.000 207.094,56.000 207.453 C 56.000 207.812,55.671 208.397,55.270 208.753 C 54.868 209.109,54.284 209.985,53.972 210.700 C 53.660 211.415,53.269 212.000,53.102 212.000 C 52.936 212.000,52.800 212.270,52.800 212.600 C 52.800 212.930,52.620 213.200,52.400 213.200 C 52.180 213.200,52.000 213.470,52.000 213.800 C 52.000 214.130,51.820 214.400,51.600 214.400 C 51.380 214.400,51.200 214.760,51.200 215.200 C 51.200 215.640,51.052 216.000,50.872 216.000 C 50.559 216.000,46.010 224.838,44.593 228.200 C 44.222 229.080,43.765 230.160,43.577 230.600 C 42.426 233.298,42.000 234.608,42.000 235.449 C 42.000 235.972,41.820 236.400,41.600 236.400 C 41.380 236.400,41.200 236.940,41.200 237.600 C 41.200 238.260,41.020 238.800,40.800 238.800 C 40.580 238.800,40.400 239.340,40.400 240.000 C 40.400 240.660,40.220 241.200,40.000 241.200 C 39.780 241.200,39.600 241.740,39.600 242.400 C 39.600 243.060,39.420 243.600,39.200 243.600 C 38.980 243.600,38.800 244.320,38.800 245.200 C 38.800 246.080,38.620 246.800,38.400 246.800 C 38.180 246.800,38.000 247.509,38.000 248.376 C 38.000 249.243,37.820 250.064,37.600 250.200 C 37.380 250.336,37.200 251.146,37.200 252.000 C 37.200 252.854,37.020 253.664,36.800 253.800 C 36.580 253.936,36.400 255.027,36.400 256.224 C 36.400 257.421,36.220 258.400,36.000 258.400 C 35.770 258.400,35.600 259.640,35.600 261.320 C 35.600 262.926,35.417 264.423,35.193 264.647 C 34.638 265.202,34.641 290.801,35.195 291.355 C 35.418 291.578,35.600 292.883,35.600 294.256 C 35.600 295.629,35.780 296.864,36.000 297.000 C 36.220 297.136,36.400 298.137,36.400 299.224 C 36.400 300.311,36.580 301.200,36.800 301.200 C 37.020 301.200,37.200 301.909,37.200 302.776 C 37.200 303.643,37.380 304.464,37.600 304.600 C 37.820 304.736,38.000 305.366,38.000 306.000 C 38.000 306.634,38.180 307.264,38.400 307.400 C 38.620 307.536,38.800 308.267,38.800 309.024 C 38.800 309.781,38.980 310.400,39.200 310.400 C 39.420 310.400,39.600 310.940,39.600 311.600 C 39.600 312.260,39.780 312.800,40.000 312.800 C 40.220 312.800,40.400 313.340,40.400 314.000 C 40.400 314.660,40.580 315.200,40.800 315.200 C 41.020 315.200,41.200 315.560,41.200 316.000 C 41.200 316.440,41.380 316.800,41.600 316.800 C 41.820 316.800,42.000 317.252,42.000 317.805 C 42.000 318.358,42.170 319.123,42.378 319.505 C 42.586 319.887,43.441 321.640,44.276 323.400 C 45.112 325.160,45.932 326.660,46.098 326.733 C 46.264 326.807,46.400 327.212,46.400 327.633 C 46.400 328.055,46.580 328.400,46.800 328.400 C 47.020 328.400,47.200 328.760,47.200 329.200 C 47.200 329.640,47.380 330.000,47.600 330.000 C 47.820 330.000,48.000 330.193,48.000 330.428 C 48.000 330.663,48.540 331.641,49.200 332.600 C 49.860 333.559,50.400 334.537,50.400 334.772 C 50.400 335.007,50.580 335.200,50.800 335.200 C 51.020 335.200,51.200 335.470,51.200 335.800 C 51.200 336.130,51.341 336.400,51.514 336.400 C 51.686 336.400,52.125 336.895,52.489 337.500 C 53.361 338.951,54.702 340.621,56.300 342.249 C 57.015 342.977,57.600 343.753,57.600 343.973 C 57.600 345.030,68.353 355.785,71.624 358.000 C 72.112 358.330,72.927 359.005,73.437 359.500 C 73.947 359.995,74.570 360.400,74.821 360.400 C 75.073 360.400,75.783 360.940,76.400 361.600 C 77.017 362.260,77.719 362.800,77.960 362.800 C 78.202 362.800,78.400 362.980,78.400 363.200 C 78.400 363.420,78.670 363.600,79.000 363.600 C 79.330 363.600,79.600 363.780,79.600 364.000 C 79.600 364.220,79.788 364.400,80.017 364.400 C 80.246 364.400,80.820 364.760,81.292 365.200 C 81.764 365.640,82.387 366.000,82.675 366.000 C 82.964 366.000,83.200 366.159,83.200 366.353 C 83.200 366.548,83.515 366.810,83.900 366.936 C 84.285 367.062,85.410 367.653,86.400 368.250 C 89.643 370.206,93.366 372.173,96.812 373.752 C 98.676 374.606,100.513 375.461,100.895 375.652 C 101.277 375.844,101.862 376.000,102.195 376.000 C 102.528 376.000,102.800 376.180,102.800 376.400 C 102.800 376.620,103.160 376.800,103.600 376.800 C 104.040 376.800,104.400 376.980,104.400 377.200 C 104.400 377.420,104.749 377.600,105.176 377.600 C 105.603 377.600,106.064 377.780,106.200 378.000 C 106.336 378.220,106.887 378.400,107.424 378.400 C 107.961 378.400,108.400 378.580,108.400 378.800 C 108.400 379.020,108.760 379.200,109.200 379.200 C 109.640 379.200,110.000 379.380,110.000 379.600 C 110.000 379.820,110.450 380.000,111.000 380.000 C 111.550 380.000,112.000 380.180,112.000 380.400 C 112.000 380.620,112.450 380.800,113.000 380.800 C 113.550 380.800,114.000 380.980,114.000 381.200 C 114.000 381.420,114.439 381.600,114.976 381.600 C 115.513 381.600,116.064 381.780,116.200 382.000 C 116.336 382.220,116.887 382.400,117.424 382.400 C 117.961 382.400,118.400 382.580,118.400 382.800 C 118.400 383.020,118.749 383.200,119.176 383.200 C 119.603 383.200,120.064 383.380,120.200 383.600 C 120.336 383.820,120.876 384.000,121.400 384.000 C 121.924 384.000,122.464 384.180,122.600 384.400 C 122.736 384.620,123.276 384.800,123.800 384.800 C 124.324 384.800,124.864 384.980,125.000 385.200 C 125.136 385.420,125.777 385.600,126.424 385.600 C 127.071 385.600,127.600 385.780,127.600 386.000 C 127.600 386.220,128.039 386.400,128.576 386.400 C 129.113 386.400,129.664 386.580,129.800 386.800 C 129.936 387.020,130.566 387.200,131.200 387.200 C 131.834 387.200,132.464 387.380,132.600 387.600 C 132.736 387.820,133.366 388.000,134.000 388.000 C 134.634 388.000,135.264 388.180,135.400 388.400 C 135.536 388.620,136.166 388.800,136.800 388.800 C 137.434 388.800,138.052 388.961,138.174 389.158 C 138.295 389.355,139.071 389.610,139.897 389.725 C 140.724 389.840,142.120 390.121,143.000 390.349 C 146.343 391.215,148.250 391.566,149.700 391.583 C 150.525 391.592,151.200 391.780,151.200 392.000 C 151.200 392.220,152.100 392.400,153.200 392.400 C 154.300 392.400,155.200 392.580,155.200 392.800 C 155.200 393.020,156.089 393.200,157.176 393.200 C 158.263 393.200,159.264 393.380,159.400 393.600 C 159.536 393.820,160.616 394.000,161.800 394.000 C 162.984 394.000,164.064 394.180,164.200 394.400 C 164.336 394.620,165.596 394.800,167.000 394.800 C 168.404 394.800,169.664 394.980,169.800 395.200 C 169.936 395.420,171.477 395.600,173.224 395.600 C 175.075 395.600,176.400 395.767,176.400 396.000 C 176.400 396.242,178.125 396.400,180.776 396.400 C 183.263 396.400,185.260 396.573,185.400 396.800 C 185.740 397.350,219.600 397.350,219.600 396.800 C 219.600 396.557,221.392 396.400,224.176 396.400 C 226.796 396.400,228.858 396.229,229.000 396.000 C 229.136 395.780,230.677 395.600,232.424 395.600 C 234.275 395.600,235.600 395.433,235.600 395.200 C 235.600 394.974,236.733 394.800,238.200 394.800 C 239.667 394.800,240.800 394.626,240.800 394.400 C 240.800 394.178,241.867 394.000,243.200 394.000 C 244.533 394.000,245.600 393.822,245.600 393.600 C 245.600 393.380,246.489 393.200,247.576 393.200 C 248.663 393.200,249.664 393.020,249.800 392.800 C 249.936 392.580,250.937 392.400,252.024 392.400 C 253.111 392.400,254.000 392.246,254.000 392.057 C 254.000 391.868,255.035 391.601,256.300 391.464 C 258.684 391.204,259.124 391.118,261.800 390.385 C 264.621 389.613,266.567 389.148,267.904 388.927 C 268.621 388.808,269.306 388.551,269.427 388.356 C 269.548 388.160,270.076 388.000,270.600 388.000 C 271.124 388.000,271.664 387.820,271.800 387.600 C 271.936 387.380,272.577 387.200,273.224 387.200 C 273.871 387.200,274.400 387.020,274.400 386.800 C 274.400 386.580,274.940 386.400,275.600 386.400 C 276.260 386.400,276.800 386.220,276.800 386.000 C 276.800 385.780,277.340 385.600,278.000 385.600 C 278.660 385.600,279.200 385.420,279.200 385.200 C 279.200 384.980,279.740 384.800,280.400 384.800 C 281.060 384.800,281.600 384.620,281.600 384.400 C 281.600 384.180,281.962 384.000,282.405 384.000 C 282.848 384.000,283.523 383.841,283.905 383.647 C 284.287 383.452,285.140 383.071,285.800 382.800 C 286.460 382.529,287.313 382.148,287.695 381.953 C 288.077 381.759,288.752 381.600,289.195 381.600 C 289.638 381.600,290.000 381.420,290.000 381.200 C 290.000 380.980,290.360 380.800,290.800 380.800 C 291.240 380.800,291.600 380.653,291.600 380.472 C 291.600 380.292,292.500 379.900,293.600 379.600 C 294.700 379.300,295.600 378.908,295.600 378.728 C 295.600 378.547,295.960 378.400,296.400 378.400 C 296.840 378.400,297.200 378.220,297.200 378.000 C 297.200 377.780,297.560 377.600,298.000 377.600 C 298.440 377.600,298.800 377.420,298.800 377.200 C 298.800 376.980,299.160 376.800,299.600 376.800 C 300.040 376.800,300.400 376.620,300.400 376.400 C 300.400 376.180,300.672 376.000,301.005 376.000 C 301.338 376.000,301.923 375.849,302.305 375.664 C 307.394 373.206,309.423 372.149,309.533 371.900 C 309.607 371.735,309.997 371.600,310.400 371.600 C 310.803 371.600,311.193 371.465,311.267 371.300 C 311.434 370.924,313.564 369.625,314.500 369.329 C 314.885 369.207,315.200 368.948,315.200 368.753 C 315.200 368.559,315.560 368.400,316.000 368.400 C 316.440 368.400,316.800 368.220,316.800 368.000 C 316.800 367.780,317.036 367.600,317.325 367.600 C 317.613 367.600,318.198 367.285,318.625 366.900 C 319.051 366.515,319.895 365.945,320.500 365.632 C 321.105 365.320,321.600 364.915,321.600 364.732 C 321.600 364.550,321.870 364.400,322.200 364.400 C 322.530 364.400,322.800 364.220,322.800 364.000 C 322.800 363.780,323.070 363.600,323.400 363.600 C 323.730 363.600,324.000 363.420,324.000 363.200 C 324.000 362.980,324.230 362.800,324.512 362.800 C 324.793 362.800,325.283 362.440,325.600 362.000 C 325.917 361.560,326.457 361.200,326.800 361.200 C 327.143 361.200,327.683 360.840,328.000 360.400 C 328.317 359.960,328.807 359.600,329.088 359.600 C 329.370 359.600,329.600 359.420,329.600 359.200 C 329.600 358.980,329.827 358.800,330.104 358.800 C 330.381 358.800,331.057 358.384,331.606 357.875 C 332.155 357.366,332.891 356.781,333.243 356.575 C 334.353 355.923,337.673 353.091,340.364 350.500 C 341.791 349.125,343.114 348.000,343.303 348.000 C 343.493 348.000,343.519 347.792,343.362 347.538 C 343.192 347.263,343.251 347.185,343.510 347.344 C 343.980 347.635,348.800 343.129,348.800 342.399 C 348.800 342.153,348.980 342.064,349.200 342.200 C 349.420 342.336,349.603 342.302,349.606 342.124 C 349.610 341.946,350.524 340.810,351.639 339.600 C 352.753 338.390,354.236 336.696,354.933 335.834 C 355.630 334.973,356.785 333.602,357.500 332.786 C 358.215 331.970,358.800 331.100,358.800 330.852 C 358.800 330.603,358.980 330.400,359.200 330.400 C 359.420 330.400,359.600 330.170,359.600 329.888 C 359.600 329.607,359.960 329.117,360.400 328.800 C 360.840 328.483,361.200 327.969,361.200 327.659 C 361.200 327.348,361.516 326.803,361.903 326.447 C 362.289 326.091,362.874 325.260,363.203 324.600 C 363.531 323.940,364.115 323.051,364.500 322.625 C 364.885 322.198,365.200 321.613,365.200 321.325 C 365.200 321.036,365.380 320.800,365.600 320.800 C 365.820 320.800,366.000 320.440,366.000 320.000 C 366.000 319.560,366.180 319.200,366.400 319.200 C 366.620 319.200,366.800 318.964,366.800 318.675 C 366.800 318.387,367.160 317.764,367.600 317.292 C 368.040 316.820,368.400 316.156,368.400 315.817 C 368.400 315.478,368.580 315.200,368.800 315.200 C 369.020 315.200,369.200 314.855,369.200 314.433 C 369.200 314.012,369.345 313.607,369.523 313.533 C 370.049 313.316,375.200 302.836,375.200 301.983 C 375.200 301.552,375.380 301.200,375.600 301.200 C 375.820 301.200,376.000 300.840,376.000 300.400 C 376.000 299.960,376.180 299.600,376.400 299.600 C 376.620 299.600,376.800 299.240,376.800 298.800 C 376.800 298.360,376.980 298.000,377.200 298.000 C 377.420 298.000,377.600 297.651,377.600 297.224 C 377.600 296.797,377.780 296.336,378.000 296.200 C 378.220 296.064,378.400 295.513,378.400 294.976 C 378.400 294.439,378.580 294.000,378.800 294.000 C 379.020 294.000,379.200 293.640,379.200 293.200 C 379.200 292.760,379.380 292.400,379.600 292.400 C 379.820 292.400,380.000 291.860,380.000 291.200 C 380.000 290.540,380.135 289.999,380.300 289.997 C 380.706 289.993,381.600 288.014,381.600 287.120 C 381.600 286.724,381.780 286.400,382.000 286.400 C 382.220 286.400,382.400 286.038,382.400 285.595 C 382.400 285.152,382.580 284.432,382.800 283.995 C 383.020 283.558,383.380 282.842,383.600 282.405 C 383.820 281.968,384.000 281.259,384.000 280.829 C 384.000 280.399,384.180 279.936,384.400 279.800 C 384.620 279.664,384.800 279.113,384.800 278.576 C 384.800 278.039,384.980 277.600,385.200 277.600 C 385.420 277.600,385.600 277.071,385.600 276.424 C 385.600 275.777,385.780 275.136,386.000 275.000 C 386.220 274.864,386.400 274.324,386.400 273.800 C 386.400 273.276,386.580 272.736,386.800 272.600 C 387.020 272.464,387.200 271.834,387.200 271.200 C 387.200 270.566,387.380 269.936,387.600 269.800 C 387.820 269.664,388.000 269.124,388.000 268.600 C 388.000 268.076,388.180 267.536,388.400 267.400 C 388.620 267.264,388.800 266.621,388.800 265.971 C 388.800 265.321,388.968 264.477,389.174 264.095 C 389.770 262.989,391.201 256.908,391.469 254.344 C 391.604 253.055,391.868 252.000,392.057 252.000 C 392.246 252.000,392.400 251.100,392.400 250.000 C 392.400 248.900,392.580 248.000,392.800 248.000 C 393.020 248.000,393.200 247.100,393.200 246.000 C 393.200 244.900,393.380 244.000,393.600 244.000 C 393.820 244.000,394.000 243.111,394.000 242.024 C 394.000 240.937,394.180 239.936,394.400 239.800 C 394.620 239.664,394.800 238.483,394.800 237.176 C 394.800 235.869,394.965 234.800,395.166 234.800 C 395.510 234.800,395.689 233.427,396.237 226.600 C 396.361 225.060,396.628 223.629,396.831 223.420 C 397.034 223.211,397.200 221.467,397.200 219.544 C 397.200 217.621,397.380 215.936,397.600 215.800 C 397.823 215.662,398.000 213.804,398.000 211.600 C 398.000 209.396,397.823 207.538,397.600 207.400 C 397.380 207.264,397.200 206.173,397.200 204.976 C 397.200 203.779,397.020 202.800,396.800 202.800 C 396.580 202.800,396.400 202.181,396.400 201.424 C 396.400 200.667,396.220 199.936,396.000 199.800 C 395.780 199.664,395.600 199.113,395.600 198.576 C 395.600 198.039,395.420 197.600,395.200 197.600 C 394.980 197.600,394.800 197.347,394.800 197.038 C 394.800 196.244,393.136 193.126,392.300 192.353 C 391.915 191.997,391.600 191.500,391.600 191.247 C 391.600 190.404,386.078 184.000,385.351 184.000 C 385.209 184.000,384.803 183.674,384.447 183.275 C 383.601 182.327,380.177 180.000,379.628 180.000 C 379.393 180.000,379.200 179.820,379.200 179.600 C 379.200 179.380,378.840 179.200,378.400 179.200 C 377.960 179.200,377.600 179.020,377.600 178.800 C 377.600 178.580,377.276 178.400,376.880 178.400 C 376.484 178.400,375.989 178.238,375.780 178.039 C 373.178 175.568,356.530 174.063,352.000 175.889 C 351.256 176.189,351.324 176.171,349.451 176.545 C 348.599 176.716,347.609 176.999,347.251 177.176 C 343.009 179.270,341.296 180.242,340.753 180.861 C 340.397 181.268,339.937 181.600,339.731 181.600 C 339.525 181.600,338.677 182.222,337.846 182.983 C 337.016 183.744,335.991 184.476,335.568 184.610 C 335.146 184.744,334.800 185.022,334.800 185.227 C 334.800 185.432,334.564 185.600,334.275 185.600 C 333.987 185.600,333.394 185.915,332.958 186.300 C 331.953 187.188,330.009 188.383,329.100 188.671 C 328.715 188.793,328.400 189.052,328.400 189.247 C 328.400 189.441,328.130 189.600,327.800 189.600 C 327.470 189.600,327.200 189.780,327.200 190.000 C 327.200 190.220,326.855 190.400,326.433 190.400 C 326.012 190.400,325.607 190.539,325.533 190.710 C 325.392 191.039,318.757 194.313,316.400 195.217 C 315.630 195.513,314.410 196.080,313.688 196.477 C 312.966 196.875,312.021 197.200,311.588 197.200 C 311.155 197.200,310.800 197.380,310.800 197.600 C 310.800 197.820,310.260 198.000,309.600 198.000 C 308.940 198.000,308.400 198.180,308.400 198.400 C 308.400 198.620,307.986 198.800,307.480 198.800 C 306.974 198.800,306.389 198.949,306.180 199.130 C 305.971 199.312,304.990 199.690,304.000 199.969 C 303.010 200.249,301.887 200.640,301.505 200.839 C 301.123 201.038,300.369 201.200,299.829 201.200 C 299.289 201.200,298.736 201.380,298.600 201.600 C 298.464 201.820,297.733 202.000,296.976 202.000 C 296.219 202.000,295.600 202.180,295.600 202.400 C 295.600 202.620,294.880 202.800,294.000 202.800 C 293.120 202.800,292.400 202.980,292.400 203.200 C 292.400 203.420,291.511 203.600,290.424 203.600 C 289.337 203.600,288.336 203.780,288.200 204.000 C 288.064 204.220,286.984 204.400,285.800 204.400 C 284.616 204.400,283.536 204.580,283.400 204.800 C 283.264 205.020,281.734 205.200,280.000 205.200 C 278.266 205.200,276.736 205.380,276.600 205.600 C 276.445 205.850,272.396 206.000,265.776 206.000 C 258.992 206.000,255.200 205.857,255.200 205.600 C 255.200 205.365,253.800 205.200,251.800 205.200 C 249.800 205.200,248.400 205.035,248.400 204.800 C 248.400 204.574,247.267 204.400,245.800 204.400 C 244.333 204.400,243.200 204.226,243.200 204.000 C 243.200 203.780,242.300 203.600,241.200 203.600 C 240.100 203.600,239.200 203.420,239.200 203.200 C 239.200 202.980,238.491 202.800,237.624 202.800 C 236.757 202.800,235.948 202.640,235.827 202.444 C 235.706 202.249,234.976 201.979,234.204 201.844 C 233.432 201.710,232.168 201.490,231.396 201.356 C 230.624 201.221,229.894 200.951,229.773 200.756 C 229.652 200.560,229.034 200.400,228.400 200.400 C 227.766 200.400,227.136 200.220,227.000 200.000 C 226.864 199.780,226.223 199.600,225.576 199.600 C 224.929 199.600,224.400 199.420,224.400 199.200 C 224.400 198.980,223.961 198.800,223.424 198.800 C 222.887 198.800,222.336 198.620,222.200 198.400 C 222.064 198.180,221.601 198.000,221.171 198.000 C 220.741 198.000,220.077 197.841,219.695 197.647 C 218.782 197.183,217.329 196.595,215.600 195.992 C 209.618 193.906,208.125 192.691,209.600 191.108 C 210.040 190.636,210.400 190.013,210.400 189.725 C 210.400 189.436,210.580 189.200,210.800 189.200 C 211.020 189.200,211.200 188.930,211.200 188.600 C 211.200 188.270,211.380 188.000,211.600 188.000 C 211.820 188.000,212.000 187.764,212.000 187.475 C 212.000 187.187,212.360 186.564,212.800 186.092 C 213.240 185.620,213.600 184.956,213.600 184.617 C 213.600 184.278,213.750 184.000,213.932 184.000 C 214.115 184.000,214.520 183.505,214.832 182.900 C 215.145 182.295,215.715 181.451,216.100 181.025 C 216.485 180.598,216.800 180.096,216.800 179.908 C 216.800 179.720,217.160 179.180,217.600 178.708 C 218.040 178.236,218.400 177.613,218.400 177.325 C 218.400 177.036,218.568 176.800,218.773 176.800 C 218.978 176.800,219.260 176.441,219.399 176.002 C 219.538 175.564,219.866 174.974,220.126 174.692 C 220.831 173.928,222.400 171.665,222.400 171.412 C 222.400 171.291,222.987 170.339,223.704 169.296 C 224.421 168.253,225.261 166.905,225.571 166.300 C 225.881 165.695,226.285 165.200,226.468 165.200 C 226.650 165.200,226.800 164.880,226.800 164.488 C 226.800 164.097,227.160 163.517,227.600 163.200 C 228.040 162.883,228.400 162.343,228.400 162.000 C 228.400 161.657,228.760 161.117,229.200 160.800 C 229.640 160.483,230.000 159.986,230.000 159.695 C 230.000 159.404,230.360 158.780,230.800 158.308 C 231.240 157.836,231.600 157.213,231.600 156.925 C 231.600 156.636,231.780 156.400,232.000 156.400 C 232.220 156.400,232.400 156.130,232.400 155.800 C 232.400 155.470,232.580 155.200,232.800 155.200 C 233.020 155.200,233.200 154.930,233.200 154.600 C 233.200 154.270,233.336 154.000,233.502 154.000 C 233.669 154.000,234.059 153.415,234.370 152.700 C 234.681 151.985,235.040 151.310,235.168 151.200 C 235.422 150.981,237.119 147.933,237.783 146.503 C 238.013 146.010,238.335 145.605,238.500 145.603 C 238.665 145.601,238.800 145.365,238.800 145.077 C 238.800 144.789,239.429 143.304,240.199 141.777 C 240.968 140.250,241.598 138.775,241.599 138.500 C 241.599 138.225,241.780 138.000,242.000 138.000 C 242.220 138.000,242.400 137.550,242.400 137.000 C 242.400 136.450,242.580 136.000,242.800 136.000 C 243.020 136.000,243.200 135.550,243.200 135.000 C 243.200 134.450,243.380 134.000,243.600 134.000 C 243.820 134.000,244.000 133.640,244.000 133.200 C 244.000 132.760,244.180 132.400,244.400 132.400 C 244.620 132.400,244.800 131.860,244.800 131.200 C 244.800 130.540,244.980 130.000,245.200 130.000 C 245.420 130.000,245.600 129.561,245.600 129.024 C 245.600 128.487,245.780 127.936,246.000 127.800 C 246.220 127.664,246.400 127.203,246.400 126.776 C 246.400 126.349,246.580 126.000,246.800 126.000 C 247.020 126.000,247.200 125.471,247.200 124.824 C 247.200 124.177,247.380 123.536,247.600 123.400 C 247.820 123.264,248.000 122.634,248.000 122.000 C 248.000 121.366,248.180 120.736,248.400 120.600 C 248.620 120.464,248.800 119.744,248.800 119.000 C 248.800 118.256,248.980 117.536,249.200 117.400 C 249.420 117.264,249.600 116.353,249.600 115.376 C 249.600 114.399,249.763 113.600,249.963 113.600 C 250.345 113.600,250.687 111.129,251.044 105.800 C 251.162 104.040,251.425 102.429,251.629 102.220 C 252.140 101.696,252.113 86.117,251.600 85.800 C 251.380 85.664,251.200 84.033,251.200 82.176 C 251.200 80.192,251.035 78.800,250.800 78.800 C 250.580 78.800,250.400 77.911,250.400 76.824 C 250.400 75.737,250.220 74.736,250.000 74.600 C 249.780 74.464,249.600 73.553,249.600 72.576 C 249.600 71.599,249.420 70.800,249.200 70.800 C 248.980 70.800,248.800 70.181,248.800 69.424 C 248.800 68.667,248.620 67.936,248.400 67.800 C 248.180 67.664,248.000 67.023,248.000 66.376 C 248.000 65.729,247.820 65.200,247.600 65.200 C 247.380 65.200,247.200 64.761,247.200 64.224 C 247.200 63.687,247.020 63.136,246.800 63.000 C 246.580 62.864,246.400 62.313,246.400 61.776 C 246.400 61.239,246.220 60.800,246.000 60.800 C 245.780 60.800,245.600 60.440,245.600 60.000 C 245.600 59.560,245.420 59.200,245.200 59.200 C 244.980 59.200,244.800 58.660,244.800 58.000 C 244.800 57.340,244.620 56.800,244.400 56.800 C 244.180 56.800,244.000 56.440,244.000 56.000 C 244.000 55.560,243.820 55.200,243.600 55.200 C 243.380 55.200,243.200 54.840,243.200 54.400 C 243.200 53.960,243.020 53.600,242.800 53.600 C 242.580 53.600,242.400 53.240,242.400 52.800 C 242.400 52.360,242.220 52.000,242.000 52.000 C 241.780 52.000,241.600 51.726,241.600 51.392 C 241.600 51.058,241.150 50.071,240.600 49.200 C 240.050 48.329,239.600 47.528,239.600 47.421 C 239.600 47.132,236.314 42.327,235.500 41.425 C 235.115 40.998,234.800 40.489,234.800 40.293 C 234.800 40.097,234.125 39.272,233.300 38.459 C 232.475 37.647,231.756 36.765,231.703 36.501 C 231.532 35.651,220.460 24.800,219.764 24.800 C 219.630 24.800,219.017 24.260,218.400 23.600 C 217.783 22.940,217.081 22.400,216.840 22.400 C 216.598 22.400,216.400 22.220,216.400 22.000 C 216.400 21.780,216.170 21.600,215.888 21.600 C 215.607 21.600,215.117 21.240,214.800 20.800 C 214.483 20.360,213.943 20.000,213.600 20.000 C 213.257 20.000,212.717 19.640,212.400 19.200 C 212.083 18.760,211.569 18.400,211.259 18.400 C 210.948 18.400,210.403 18.085,210.047 17.700 C 209.691 17.315,208.680 16.623,207.800 16.162 C 206.920 15.700,205.480 14.906,204.600 14.397 C 202.396 13.121,196.846 10.400,196.449 10.400 C 196.270 10.400,195.582 10.130,194.921 9.800 C 194.260 9.471,193.242 9.161,192.660 9.113 C 192.077 9.065,191.600 8.885,191.600 8.713 C 191.600 8.541,191.150 8.400,190.600 8.400 C 190.050 8.400,189.600 8.220,189.600 8.000 C 189.600 7.780,189.060 7.600,188.400 7.600 C 187.740 7.600,187.200 7.420,187.200 7.200 C 187.200 6.980,186.671 6.800,186.024 6.800 C 185.377 6.800,184.736 6.620,184.600 6.400 C 184.464 6.180,183.733 6.000,182.976 6.000 C 182.219 6.000,181.600 5.820,181.600 5.600 C 181.600 5.380,180.891 5.200,180.024 5.200 C 179.157 5.200,178.336 5.020,178.200 4.800 C 178.064 4.580,177.164 4.400,176.200 4.400 C 175.236 4.400,174.336 4.220,174.200 4.000 C 174.064 3.780,172.714 3.600,171.200 3.600 C 169.686 3.600,168.336 3.420,168.200 3.200 C 167.864 2.656,146.536 2.656,146.200 3.200 M123.488 45.237 C 134.511 51.337,130.511 72.707,116.673 81.651 C 102.308 90.935,92.639 76.141,101.408 58.297 C 106.352 48.237,117.255 41.788,123.488 45.237 M168.903 226.610 C 175.453 227.586,181.633 229.445,188.400 232.478 C 190.441 233.392,192.621 234.330,193.800 234.801 C 194.240 234.977,195.453 235.498,196.496 235.960 C 197.538 236.422,198.633 236.800,198.929 236.800 C 199.225 236.800,199.586 236.919,199.732 237.065 C 200.565 237.899,215.641 242.679,223.527 244.611 C 243.078 249.401,259.993 250.745,283.165 249.352 C 302.014 248.219,315.755 266.257,310.066 284.667 C 309.156 287.612,303.876 296.706,300.866 300.512 C 291.826 311.945,276.553 322.173,258.700 328.752 C 257.435 329.219,255.455 329.948,254.300 330.374 C 252.218 331.141,245.278 333.244,242.200 334.040 C 241.320 334.268,240.060 334.601,239.400 334.781 C 237.990 335.165,234.899 335.903,232.500 336.428 C 231.565 336.633,230.035 336.975,229.100 337.188 C 222.889 338.606,206.611 341.178,197.400 342.197 C 181.177 343.993,163.618 342.053,152.200 337.203 C 130.029 327.786,115.254 310.499,110.925 288.908 C 103.753 253.131,133.359 221.318,168.903 226.610 " stroke="none" fill="#fbbc4c" fill-rule="evenodd"></path><path id="path1" d="M56.400 80.400 C 56.400 80.620,55.590 80.800,54.600 80.800 C 53.610 80.800,52.800 80.980,52.800 81.200 C 52.800 81.420,51.821 81.600,50.624 81.600 C 49.427 81.600,48.336 81.780,48.200 82.000 C 48.064 82.220,47.074 82.400,46.000 82.400 C 44.926 82.400,43.936 82.580,43.800 82.800 C 43.664 83.020,42.404 83.200,41.000 83.200 C 39.596 83.200,38.336 83.380,38.200 83.600 C 38.063 83.821,36.263 84.000,34.176 84.000 C 31.925 84.000,30.400 84.162,30.400 84.400 C 30.400 84.646,28.400 84.800,25.200 84.800 C 22.000 84.800,20.000 84.646,20.000 84.400 C 20.000 84.152,17.800 84.000,14.200 84.000 C 10.600 84.000,8.400 84.152,8.400 84.400 C 8.400 84.620,8.125 84.800,7.789 84.800 C 6.996 84.800,3.600 88.196,3.600 88.989 C 3.600 89.325,3.420 89.600,3.200 89.600 C 2.980 89.600,2.800 89.960,2.800 90.400 C 2.800 90.840,2.620 91.200,2.400 91.200 C 2.174 91.200,2.000 92.333,2.000 93.800 C 2.000 95.267,2.174 96.400,2.400 96.400 C 2.620 96.400,2.800 97.120,2.800 98.000 C 2.800 98.880,2.980 99.600,3.200 99.600 C 3.420 99.600,3.600 100.140,3.600 100.800 C 3.600 101.460,3.780 102.000,4.000 102.000 C 4.220 102.000,4.400 102.540,4.400 103.200 C 4.400 103.860,4.580 104.400,4.800 104.400 C 5.020 104.400,5.200 104.760,5.200 105.200 C 5.200 105.640,5.380 106.000,5.600 106.000 C 5.820 106.000,6.000 106.450,6.000 107.000 C 6.000 107.550,6.180 108.000,6.400 108.000 C 6.620 108.000,6.800 108.320,6.800 108.712 C 6.800 109.103,7.160 109.683,7.600 110.000 C 8.040 110.317,8.400 110.779,8.400 111.027 C 8.400 111.811,9.817 114.239,12.350 117.794 C 14.225 120.426,19.926 126.000,20.744 126.000 C 20.929 126.000,21.646 126.540,22.337 127.200 C 23.028 127.860,23.825 128.400,24.108 128.400 C 24.391 128.400,24.883 128.760,25.200 129.200 C 25.517 129.640,26.007 130.000,26.288 130.000 C 26.570 130.000,26.800 130.180,26.800 130.400 C 26.800 130.620,27.160 130.800,27.600 130.800 C 28.040 130.800,28.400 130.980,28.400 131.200 C 28.400 131.420,28.760 131.600,29.200 131.600 C 29.640 131.600,30.000 131.780,30.000 132.000 C 30.000 132.220,30.360 132.400,30.800 132.400 C 31.240 132.400,31.600 132.580,31.600 132.800 C 31.600 133.020,31.960 133.200,32.400 133.200 C 32.840 133.200,33.200 133.380,33.200 133.600 C 33.200 133.820,33.549 134.000,33.976 134.000 C 34.403 134.000,34.864 134.180,35.000 134.400 C 35.136 134.620,35.687 134.800,36.224 134.800 C 36.761 134.800,37.200 134.980,37.200 135.200 C 37.200 135.420,37.740 135.600,38.400 135.600 C 39.060 135.600,39.600 135.780,39.600 136.000 C 39.600 136.220,40.219 136.400,40.976 136.400 C 41.733 136.400,42.464 136.580,42.600 136.800 C 42.736 137.020,43.467 137.200,44.224 137.200 C 44.981 137.200,45.600 137.380,45.600 137.600 C 45.600 137.820,46.500 138.000,47.600 138.000 C 48.700 138.000,49.600 138.180,49.600 138.400 C 49.600 138.627,50.773 138.800,52.320 138.800 C 53.816 138.800,55.211 138.969,55.420 139.175 C 55.629 139.382,58.987 139.607,62.882 139.675 L 69.965 139.800 70.212 138.800 C 72.047 131.395,77.574 121.309,82.776 115.876 C 88.900 109.479,88.693 105.877,81.740 97.864 C 77.303 92.751,63.769 82.000,61.768 82.000 C 61.607 82.000,60.886 81.550,60.164 81.000 C 58.866 80.009,56.400 79.616,56.400 80.400 " stroke="none" fill="#f45c5c" fill-rule="evenodd"></path><path id="path2" d="M153.400 226.638 C 121.450 231.495,102.441 264.040,112.824 296.108 C 118.764 314.453,132.577 328.868,152.200 337.203 C 163.618 342.053,181.177 343.993,197.400 342.197 C 206.611 341.178,222.889 338.606,229.100 337.188 C 230.035 336.975,231.565 336.633,232.500 336.428 C 234.899 335.903,237.990 335.165,239.400 334.781 C 240.060 334.601,241.320 334.268,242.200 334.040 C 245.278 333.244,252.218 331.141,254.300 330.374 C 255.455 329.948,257.435 329.219,258.700 328.752 C 282.442 320.003,298.951 306.770,307.959 289.267 C 317.898 269.958,304.308 248.081,283.165 249.352 C 259.993 250.745,243.078 249.401,223.527 244.611 C 215.641 242.679,200.565 237.899,199.732 237.065 C 199.586 236.919,199.225 236.800,198.929 236.800 C 198.633 236.800,197.538 236.422,196.496 235.960 C 195.453 235.498,194.240 234.977,193.800 234.801 C 192.621 234.330,190.441 233.392,188.400 232.478 C 175.959 226.902,164.375 224.970,153.400 226.638 M34.000 277.353 C 34.000 277.683,34.180 278.064,34.400 278.200 C 34.620 278.336,34.800 278.177,34.800 277.847 C 34.800 277.517,34.620 277.136,34.400 277.000 C 34.180 276.864,34.000 277.023,34.000 277.353 " stroke="none" fill="#fcdb63" fill-rule="evenodd"></path><path id="path3" d="M115.770 45.549 C 97.590 51.754,91.558 83.845,108.600 83.700 C 115.998 83.637,123.394 76.984,127.609 66.600 C 128.144 65.280,128.447 63.964,128.989 60.600 C 130.710 49.915,124.315 42.633,115.770 45.549 " stroke="none" fill="#4d5463" fill-rule="evenodd"></path><path id="path4" d="M114.454 45.373 C 98.963 51.892,92.012 77.702,104.200 83.449 C 117.379 89.664,135.429 64.735,128.321 50.135 C 125.820 44.998,120.052 43.017,114.454 45.373 M122.452 45.412 C 128.792 47.572,131.243 57.645,127.609 66.600 C 119.311 87.045,98.566 90.335,98.610 71.200 C 98.643 56.713,112.293 41.950,122.452 45.412 " stroke="none" fill="#b09054" fill-rule="evenodd"></path></g></svg>